<svg width="267" height="267" xmlns="http://www.w3.org/2000/svg">
  <!-- Girl sprite matching original PNG appearance, sized to match original dimensions -->
  
  <!-- Crown (golden yellow like original) -->
  <rect x="108" y="20" width="51" height="15" fill="#FFD700"/>
  <polygon points="120,8 125,20 115,20" fill="#FFD700"/>
  <polygon points="133,8 138,20 128,20" fill="#FFD700"/>
  <polygon points="146,8 151,20 141,20" fill="#FFD700"/>
  
  <!-- Hair (brown, bushy like original) -->
  <ellipse cx="133" cy="50" rx="45" ry="35" fill="#8B4513"/>
  <ellipse cx="115" cy="45" rx="20" ry="25" fill="#964B00"/>
  <ellipse cx="151" cy="45" rx="20" ry="25" fill="#964B00"/>
  
  <!-- Face (peach skin tone) -->
  <ellipse cx="133" cy="85" rx="30" ry="25" fill="#FFDBAC"/>
  
  <!-- Eyes (black dots) -->
  <rect x="120" y="80" width="6" height="6" fill="#000"/>
  <rect x="140" y="80" width="6" height="6" fill="#000"/>
  
  <!-- Nose (small pink) -->
  <rect x="131" y="88" width="4" height="3" fill="#FFB6C1"/>
  
  <!-- Shirt (coral/red like original) -->
  <rect x="108" y="110" width="50" height="40" fill="#FF6B6B"/>
  
  <!-- Skirt (purple like original) -->
  <rect x="100" y="150" width="66" height="45" fill="#9B59B6"/>
  
  <!-- Legs (skin tone) -->
  <rect x="115" y="195" width="15" height="35" fill="#FFDBAC"/>
  <rect x="136" y="195" width="15" height="35" fill="#FFDBAC"/>
  
  <!-- Shoes (brown, positioned at absolute bottom for perfect collision) -->
  <rect x="110" y="230" width="22" height="37" fill="#8B4513"/>
  <rect x="135" y="230" width="22" height="37" fill="#8B4513"/>
</svg>